<svg width="16" height="19" viewBox="0 0 16 19" fill="none" xmlns="http://www.w3.org/2000/svg">
<path d="M15.9124 8.64052C15.8397 8.48918 15.7259 8.36148 15.5843 8.2721C15.4426 8.18271 15.2787 8.13525 15.1114 8.13515H11.5556V1.88506C11.5556 1.64825 11.462 1.42115 11.2953 1.2537C11.1286 1.08626 10.9025 0.992188 10.6667 0.992188H5.33304C5.09728 0.992188 4.87117 1.08626 4.70446 1.2537C4.53775 1.42115 4.44409 1.64825 4.44409 1.88506V8.13515H0.88832C0.720961 8.13544 0.557076 8.18313 0.41548 8.27274C0.273884 8.36235 0.160318 8.49025 0.0878213 8.64176C0.0153246 8.79326 -0.0131638 8.96223 0.00562729 9.12927C0.0244184 9.2963 0.0897272 9.45463 0.194055 9.58607L7.3056 18.5148C7.38888 18.6194 7.49452 18.7038 7.6147 18.7619C7.73488 18.8199 7.86652 18.85 7.99987 18.85C8.13321 18.85 8.26485 18.8199 8.38503 18.7619C8.50521 18.7038 8.61086 18.6194 8.69413 18.5148L15.8057 9.58607C16.019 9.31732 16.0599 8.95035 15.9124 8.64052ZM7.99987 16.5272L2.73821 9.9209H6.22198V2.77793H9.77776V9.9209H13.2615L7.99987 16.5272Z" fill="black"/>
</svg>
