<svg width="20" height="20" viewBox="0 0 20 20" fill="none" xmlns="http://www.w3.org/2000/svg">
<g clip-path="url(#clip0_89_147)">
<path d="M20 10.0001C20 11.3134 19.7414 12.6139 19.2388 13.8272C18.7362 15.0405 17.9996 16.143 17.0709 17.0716C16.1423 18.0003 15.0398 18.7369 13.8265 19.2395C12.6131 19.7421 11.3127 20.0008 9.9994 20.0008C8.6861 20.0008 7.38566 19.7421 6.17233 19.2395C4.959 18.7369 3.85654 18.0003 2.92789 17.0716C1.99925 16.143 1.26261 15.0405 0.760031 13.8272C0.257453 12.6139 -0.00122072 11.3134 -0.0012207 10.0001C-0.00122066 7.34781 1.05241 4.80411 2.92789 2.92863C4.80338 1.05315 7.34707 -0.000488281 9.9994 -0.000488281C12.6517 -0.000488281 15.1954 1.05315 17.0709 2.92863C18.9464 4.80411 20 7.34781 20 10.0001Z" fill="url(#paint0_linear_89_147)"/>
<path d="M3.75 10.01C3.75 12.5288 5.0075 17.5 10 17.5C14.9913 17.5 16.25 12.5288 16.25 10.01C16.25 9.81125 14.2375 8.75 10 8.75C5.7625 8.75 3.75 9.81125 3.75 10.01Z" fill="url(#paint1_linear_89_147)"/>
<path d="M5.67627 15.625C6.68127 16.8688 8.06002 17.5 10.0125 17.5C11.9663 17.5 13.3313 16.8688 14.3363 15.625C13.6475 14.89 12.3375 13.75 10.0125 13.75C7.68752 13.75 6.36627 14.89 5.67627 15.625Z" fill="url(#paint2_linear_89_147)"/>
<path d="M7.76621 5.18022C8.09496 5.41522 8.39371 5.74897 8.27871 6.16522C8.18996 6.48272 8.03621 6.62647 7.75121 6.62772C6.77621 6.64272 5.61621 6.94772 4.61871 7.39397C4.53746 7.43022 4.37246 7.50397 4.20371 7.50022C4.04871 7.49647 3.88996 7.42772 3.79496 7.20397C3.71121 7.00772 3.70371 6.71897 4.13996 6.45647C4.82121 6.04397 5.71121 5.85647 6.52621 5.70147C6.01371 5.32272 5.46371 5.00147 4.88246 4.74147C4.34871 4.49897 4.40746 4.17022 4.47871 3.99147C4.63746 3.59522 5.23996 3.74647 5.82621 4.02397C6.51003 4.34333 7.15997 4.7307 7.76621 5.18022ZM12.2375 5.18022C12.8427 4.73053 13.4918 4.34314 14.175 4.02397C14.7625 3.74647 15.3625 3.59522 15.5225 3.99147C15.5937 4.17022 15.6525 4.49897 15.1187 4.74147C14.5385 5.00115 13.9882 5.32303 13.4775 5.70147C14.29 5.85522 15.1812 6.04397 15.8612 6.45647C16.2975 6.71897 16.2887 7.00647 16.2062 7.20397C16.11 7.42897 15.9525 7.49647 15.7975 7.50022C15.6287 7.50397 15.4637 7.43022 15.3825 7.39397C14.3862 6.94772 13.2262 6.64397 12.2525 6.62897C11.9675 6.62647 11.8137 6.48272 11.725 6.16647C11.6112 5.75022 11.9087 5.41647 12.2375 5.18147V5.18022Z" fill="#2A3755"/>
</g>
<defs>
<linearGradient id="paint0_linear_89_147" x1="10" y1="2.05014" x2="10" y2="20.0001" gradientUnits="userSpaceOnUse">
<stop stop-color="#FEEA70"/>
<stop offset="1" stop-color="#F69B30"/>
</linearGradient>
<linearGradient id="paint1_linear_89_147" x1="10" y1="8.75" x2="10" y2="17.5" gradientUnits="userSpaceOnUse">
<stop stop-color="#472315"/>
<stop offset="1" stop-color="#8B3A0E"/>
</linearGradient>
<linearGradient id="paint2_linear_89_147" x1="10.0063" y1="13.75" x2="10.0063" y2="16.8212" gradientUnits="userSpaceOnUse">
<stop stop-color="#FC607C"/>
<stop offset="1" stop-color="#D91F3A"/>
</linearGradient>
<clipPath id="clip0_89_147">
<rect width="20" height="20" fill="white"/>
</clipPath>
</defs>
</svg>
