<svg width="20" height="20" viewBox="0 0 20 20" fill="none" xmlns="http://www.w3.org/2000/svg">
<path d="M10 0C4.47 0 0 4.4347 0 9.92102C0 15.4073 4.47 19.842 10 19.842C12.6522 19.842 15.1957 18.7968 17.0711 16.9362C18.9464 15.0757 20 12.5522 20 9.92102C20 4.4347 15.5 0 10 0ZM10 17.8578C7.87827 17.8578 5.84344 17.0216 4.34315 15.5332C2.84285 14.0448 2 12.026 2 9.92102C2 7.81605 2.84285 5.79729 4.34315 4.30884C5.84344 2.8204 7.87827 1.9842 10 1.9842C12.1217 1.9842 14.1566 2.8204 15.6569 4.30884C17.1571 5.79729 18 7.81605 18 9.92102C18 12.026 17.1571 14.0448 15.6569 15.5332C14.1566 17.0216 12.1217 17.8578 10 17.8578ZM11 7.87729L12.06 8.92892L13.12 7.87729L14.18 8.92892L15.24 7.87729L13.12 5.77403L11 7.87729ZM6.88 7.87729L7.94 8.92892L9 7.87729L6.88 5.77403L4.76 7.87729L5.82 8.92892L6.88 7.87729ZM10 15.3776C12.33 15.3776 14.31 13.9291 15.11 11.9052H4.89C5.69 13.9291 7.67 15.3776 10 15.3776Z" fill="black"/>
</svg>
