<svg width="24" height="20" viewBox="0 0 24 20" fill="none" xmlns="http://www.w3.org/2000/svg">
<path d="M22.7828 7.51284C22.7825 4.46402 20.3071 1.99277 17.2537 1.99316C15.3107 1.99316 13.512 3.01758 12.516 4.68326C11.5197 3.01758 9.72098 1.99617 7.77813 1.99316C4.72472 1.99277 2.24922 4.46402 2.2489 7.51284C2.2489 12.7644 7.76678 16.97 12.516 19.4964C17.265 16.9701 22.7828 12.7644 22.7828 7.51284Z" fill="#F75478"/>
<path d="M17.2535 1.99316C16.8834 1.99316 16.519 2.03134 16.1638 2.10305C18.6917 2.61087 20.5955 4.83882 20.5958 7.51258C20.5958 12.365 15.8853 16.3216 11.4229 18.8884C11.7897 19.0994 12.1551 19.3045 12.5159 19.4964C17.2649 16.9701 22.7827 12.7641 22.7827 7.51258C22.7824 4.46376 20.3069 1.99277 17.2535 1.99316Z" fill="#F64243"/>
<path d="M7.77835 1.48926C4.44261 1.48883 1.73583 4.19658 1.73547 7.51289C1.73547 10.3118 3.20209 12.7939 5.23066 14.8745C7.25923 16.955 9.86485 18.6588 12.2712 19.9389C12.3463 19.9789 12.4304 19.9998 12.5158 19.9998C12.6012 19.9998 12.6853 19.9789 12.7604 19.9389C15.1666 18.6589 17.7724 16.955 19.8009 14.8745C21.8295 12.7939 23.2961 10.3118 23.2961 7.51289C23.2958 4.19658 20.5889 1.48883 17.2532 1.48926C15.3693 1.48926 13.6478 2.40464 12.5158 3.86802C11.3835 2.40514 9.66218 1.49217 7.77935 1.48926C7.77901 1.48926 7.77868 1.48926 7.77833 1.48926H7.77835ZM7.77732 2.49664C9.53729 2.49936 11.1675 3.42341 12.0736 4.93836C12.1189 5.01405 12.1836 5.0768 12.2613 5.1204C12.3389 5.164 12.4268 5.18694 12.5163 5.18694C12.6057 5.18694 12.6937 5.164 12.7713 5.1204C12.8489 5.0768 12.9136 5.01405 12.9589 4.93836C13.8649 3.42324 15.4941 2.49664 17.2532 2.49664C20.0243 2.49628 22.2691 4.73155 22.2694 7.51289C22.2694 9.96557 20.9766 12.2111 19.059 14.1779C17.2074 16.077 14.7892 17.6731 12.5158 18.904C10.2422 17.673 7.82419 16.077 5.97257 14.1779C4.05495 12.2112 2.76217 9.96557 2.76217 7.51289C2.76246 4.7319 5.00674 2.49683 7.77735 2.49664H7.77732ZM19.5091 11.4716C19.5004 11.4715 19.4917 11.4718 19.4831 11.4726C19.4415 11.4757 19.4013 11.4887 19.3661 11.5105C19.3308 11.5323 19.3014 11.5621 19.2805 11.5975C18.4333 12.9882 17.1312 14.245 15.6871 15.3191C15.6602 15.3392 15.6376 15.3642 15.6206 15.3928C15.6036 15.4214 15.5925 15.453 15.588 15.4857C15.5834 15.5185 15.5855 15.5519 15.5941 15.5839C15.6026 15.6159 15.6176 15.646 15.638 15.6723C15.6584 15.6987 15.6839 15.7208 15.713 15.7375C15.7421 15.7542 15.7743 15.7651 15.8078 15.7696C15.8412 15.774 15.8752 15.772 15.9078 15.7636C15.9404 15.7552 15.9711 15.7405 15.9979 15.7205C17.477 14.6204 18.8248 13.3268 19.7207 11.8563C19.7445 11.8186 19.7578 11.7754 19.7592 11.7311C19.7606 11.6867 19.75 11.6428 19.7285 11.6038C19.707 11.5648 19.6754 11.532 19.6369 11.5088C19.5984 11.4856 19.5543 11.4727 19.5091 11.4716V11.4716ZM14.6965 16.0609C14.6473 16.0624 14.5997 16.0778 14.5591 16.1052C14.3012 16.2741 14.0419 16.4378 13.7821 16.5951C13.7517 16.6116 13.725 16.634 13.7037 16.6609C13.6824 16.6878 13.6669 16.7187 13.6581 16.7517C13.6493 16.7847 13.6474 16.8191 13.6526 16.8528C13.6577 16.8866 13.6698 16.9189 13.6881 16.9479C13.7064 16.9769 13.7305 17.002 13.7589 17.0216C13.7873 17.0412 13.8195 17.0549 13.8535 17.0619C13.8876 17.0689 13.9227 17.0691 13.9568 17.0624C13.9908 17.0557 14.0232 17.0423 14.0518 17.023C14.3166 16.8627 14.5816 16.6966 14.8449 16.5242C14.8921 16.4943 14.9281 16.4501 14.9472 16.3982C14.9663 16.3463 14.9675 16.2897 14.9506 16.2371C14.9338 16.1845 14.8998 16.1387 14.8539 16.1069C14.808 16.0751 14.7527 16.0589 14.6965 16.0609V16.0609Z" fill="#1E2950"/>
<path d="M8.38092 3.80264C7.89675 3.79295 7.37642 3.96176 6.88807 4.28695C6.39973 4.61214 5.96614 5.07855 5.64413 5.62508C5.43416 5.98134 5.27686 6.36278 5.18121 6.7476C5.08557 7.13242 5.05344 7.5131 5.08668 7.86789C5.11993 8.22268 5.21789 8.54464 5.37496 8.81538C5.53203 9.08611 5.74514 9.30033 6.00212 9.44578C6.25913 9.59126 6.55498 9.66511 6.87278 9.66313C7.19058 9.66115 7.52409 9.58338 7.85428 9.43425C8.18448 9.28512 8.50488 9.06756 8.79718 8.79399C9.08948 8.52042 9.34796 8.1962 9.55785 7.83985C9.76782 7.48353 9.92509 7.10204 10.0207 6.71717C10.1163 6.3323 10.1484 5.95159 10.115 5.59679C10.0817 5.24199 9.98368 4.92005 9.82651 4.64936C9.66934 4.37866 9.45612 4.16451 9.19903 4.01915C8.95633 3.88197 8.67892 3.80856 8.38092 3.80264ZM6.54367 10.4388C6.21071 10.4388 5.89136 10.5365 5.65585 10.7105C5.42035 10.8845 5.28797 11.1206 5.28782 11.3667C5.28775 11.4887 5.32018 11.6094 5.38326 11.7221C5.44634 11.8348 5.53883 11.9372 5.65546 12.0234C5.77209 12.1097 5.91055 12.1781 6.06295 12.2248C6.21535 12.2714 6.37871 12.2954 6.54367 12.2954C6.87668 12.2953 7.19597 12.1974 7.43133 12.0232C7.66669 11.849 7.79883 11.6129 7.79868 11.3667C7.79854 11.1207 7.66626 10.8847 7.43094 10.7107C7.19561 10.5367 6.87649 10.4389 6.54367 10.4388Z" fill="#FB87A4"/>
<path d="M6.97739 5.02647e-05C4.27812 -0.000298289 1.93224 1.53398 0.774092 3.77281C0.741324 3.832 0.720986 3.89703 0.714279 3.96406C0.707571 4.03109 0.714625 4.09876 0.735036 4.16306C0.755447 4.22737 0.788796 4.28701 0.833106 4.33845C0.877417 4.38989 0.931789 4.43209 0.993011 4.46255C1.05423 4.49302 1.12106 4.51112 1.18954 4.5158C1.25802 4.52048 1.32676 4.51164 1.3917 4.4898C1.45663 4.46796 1.51645 4.43357 1.5676 4.38865C1.61875 4.34373 1.6602 4.28921 1.6895 4.2283C2.6807 2.3122 4.6742 1.00714 6.97739 1.00743C7.04541 1.00838 7.11296 0.996045 7.17608 0.971156C7.23921 0.946266 7.29666 0.909314 7.3451 0.862449C7.39355 0.815583 7.43201 0.759738 7.45826 0.698159C7.48452 0.63658 7.49804 0.570492 7.49804 0.503741C7.49804 0.43699 7.48452 0.370907 7.45826 0.309327C7.43201 0.247748 7.39355 0.191899 7.3451 0.145034C7.29666 0.098168 7.23921 0.0612204 7.17608 0.0363307C7.11296 0.011441 7.04541 -0.000892723 6.97739 5.02647e-05ZM0.585597 5.3439C0.467339 5.34934 0.354641 5.39472 0.266571 5.47235C0.178501 5.54998 0.120474 5.65508 0.102327 5.76987C0.0351657 6.15777 0.000104658 6.55589 5.84563e-05 6.9622C-0.000968203 7.02894 0.0115377 7.09522 0.0368426 7.15718C0.0621475 7.21914 0.0997459 7.27555 0.147461 7.32313C0.195177 7.3707 0.252059 7.4085 0.314792 7.43432C0.377524 7.46014 0.444861 7.47348 0.51289 7.47354C0.58092 7.47361 0.648282 7.46041 0.711067 7.43471C0.773852 7.40901 0.830804 7.37132 0.878617 7.32384C0.926429 7.27636 0.964149 7.22002 0.98958 7.15811C1.01501 7.0962 1.02765 7.02995 1.02676 6.96321C1.02679 6.61351 1.0574 6.2706 1.11499 5.93812C1.12896 5.86348 1.12558 5.78671 1.10507 5.71354C1.08457 5.64037 1.04747 5.57269 0.996567 5.51555C0.945664 5.45842 0.882275 5.41331 0.811111 5.38359C0.739947 5.35387 0.662851 5.34031 0.585597 5.34392V5.3439ZM23.4657 12.2962C23.3824 12.2995 23.3012 12.3226 23.229 12.3636C23.1569 12.4045 23.096 12.4621 23.0516 12.5313C22.0541 14.0409 20.7283 15.4504 19.2346 16.7311C19.181 16.7737 19.1366 16.8265 19.1043 16.8863C19.0719 16.9461 19.0522 17.0117 19.0462 17.0791C19.0403 17.1466 19.0483 17.2145 19.0697 17.2789C19.0911 17.3433 19.1256 17.4028 19.1709 17.4538C19.2163 17.5048 19.2717 17.5463 19.3338 17.5758C19.3959 17.6054 19.4635 17.6223 19.5324 17.6256C19.6013 17.629 19.6702 17.6186 19.735 17.5953C19.7998 17.5719 19.8591 17.5359 19.9094 17.4895C21.4571 16.1625 22.8483 14.6912 23.9129 13.0803C23.9657 13.003 23.9957 12.9129 23.9996 12.8199C24.0034 12.7269 23.9809 12.6347 23.9346 12.5535C23.8883 12.4723 23.82 12.4053 23.7372 12.3599C23.6544 12.3145 23.5605 12.2924 23.4657 12.2962ZM17.9953 17.8712C17.8797 17.871 17.7673 17.9092 17.6765 17.9795C17.445 18.1533 17.2104 18.324 16.9747 18.492C16.8645 18.5705 16.7906 18.6888 16.7692 18.8208C16.7479 18.9528 16.7809 19.0877 16.8609 19.1958C16.941 19.304 17.0615 19.3765 17.196 19.3974C17.3305 19.4184 17.468 19.3861 17.5782 19.3075C17.8207 19.1348 18.0616 18.9584 18.3001 18.7793C18.3867 18.7162 18.4507 18.6279 18.4833 18.5271C18.5158 18.4262 18.5152 18.3179 18.4815 18.2174C18.4478 18.1169 18.3826 18.0294 18.2954 17.9673C18.2081 17.9052 18.1031 17.8715 17.9953 17.8712Z" fill="#47C5FE"/>
</svg>
